P3
128 1
255
255
0
0
255
6
0
255
17
0
255
30
0
255
42
0
255
53
0
255
65
0
255
78
0
255
90
0
255
102
0
255
114
0
255
126
0
255
138
0
255
150
0
255
162
0
255
174
0
255
186
0
255
198
0
255
210
0
255
223
0
255
234
0
255
247
0
251
255
0
240
255
0
227
255
0
215
255
0
203
255
0
191
255
0
179
255
0
167
255
0
155
255
0
142
255
0
131
255
0
119
255
0
107
255
0
94
255
0
83
255
0
70
255
0
59
255
0
47
255
0
34
255
0
23
255
0
10
255
0
0
255
2
0
255
14
0
255
26
0
255
38
0
255
50
0
255
63
0
255
74
0
255
87
0
255
98
0
255
110
0
255
123
0
255
134
0
255
146
0
255
158
0
255
171
0
255
182
0
255
195
0
255
206
0
255
219
0
255
231
0
255
243
0
255
255
0
243
255
0
231
255
0
219
255
0
206
255
0
195
255
0
183
255
0
170
255
0
158
255
0
146
255
0
134
255
0
123
255
0
110
255
0
98
255
0
86
255
0
74
255
0
63
255
0
50
255
0
38
255
0
25
255
0
14
255
0
1
255
10
0
255
22
0
255
34
0
255
46
0
255
58
0
255
70
0
255
83
0
255
95
0
255
107
0
255
119
0
255
131
0
255
143
0
255
155
0
255
167
0
255
179
0
255
191
0
255
203
0
255
215
0
255
227
0
255
239
0
255
251
0
255
255
0
246
255
0
235
255
0
223
255
0
211
255
0
199
255
0
186
255
0
174
255
0
162
255
0
151
255
0
138
255
0
126
255
0
114
255
0
102
255
0
89
255
0
77
255
0
66
255
0
54
255
0
41
255
0
29
255
0
17
255
0
5
