P3
128 1
255
4
4
251
17
17
238
38
37
218
59
58
196
79
80
176
100
101
155
121
121
134
142
142
113
162
162
92
183
183
72
204
204
51
225
225
31
246
246
10
255
243
0
255
223
0
255
202
0
255
181
0
255
160
0
255
139
0
255
119
0
255
98
0
255
77
0
255
57
0
255
36
0
255
15
0
255
6
0
255
26
0
255
47
0
255
68
0
255
89
0
255
110
0
255
130
0
255
151
0
255
172
0
255
193
0
255
213
0
255
234
0
255
255
0
234
234
21
214
214
41
193
193
63
172
172
83
151
151
104
130
130
124
110
110
145
89
89
166
68
68
187
47
48
207
27
27
229
6
6
250
15
15
240
36
36
219
56
57
198
78
77
178
98
98
156
119
119
136
140
139
115
160
161
94
181
181
73
202
203
52
223
223
32
243
244
11
255
246
0
255
225
0
255
204
0
255
183
0
255
163
0
255
142
0
255
121
0
255
100
0
255
79
0
255
59
0
255
38
0
255
17
0
255
3
0
255
25
0
255
45
0
255
66
0
255
86
0
255
108
0
255
129
0
255
149
0
255
170
0
255
191
0
255
211
0
255
233
0
255
254
0
236
236
18
215
216
39
195
194
60
174
174
82
153
153
102
132
132
123
111
112
144
90
91
164
70
70
186
49
49
206
28
28
226
8
8
247
13
13
242
34
34
221
55
54
200
76
76
180
97
97
158
117
117
138
138
138
117
159
159
97
180
179
76
200
200
55
221
221
34
242
241
14
255
248
0
255
227
0
255
206
0
255
185
0
255
164
0
255
143
0
255
123
0
255
102
0
255
81
0
255
61
0
255
40
0
255
19
0
255
2
0
255
22
0
255
43
0
255
65
0
255
85
0
